<svg xmlns="http://www.w3.org/2000/svg" width="79" height="79" fill="none"><path fill="#D0F0EE" d="M39.5 79C17.685 79 0 61.315 0 39.5S17.685 0 39.5 0 79 17.685 79 39.5 61.315 79 39.5 79Z"/><path fill="#50D9D7" d="M70 24v39H10V24a3 3 0 0 1 3-3h54a3 3 0 0 1 3 3Z"/><path fill="#00AAA8" d="M9 63h62a1 1 0 0 1 1 1v2a3 3 0 0 1-3 3H11a3 3 0 0 1-3-3v-2a1 1 0 0 1 1-1Z"/><path fill="#fff" d="M68 24v37H12V24a1 1 0 0 1 1-1h54a1 1 0 0 1 1 1Z"/><path fill="#00AAA8" d="M56 21H20v2h36v-2Z"/><path fill="#F3F3F3" d="M56 23v18a2 2 0 0 1-2 2H22a2 2 0 0 1-2-2V23h36Z"/><path fill="#50D9D7" d="M56 14H24a2 2 0 0 0-2 2v23a2 2 0 0 0 2 2h32a2 2 0 0 0 2-2V16a2 2 0 0 0-2-2Z"/><path fill="#F3F3F3" d="M40 14.41c0 26.5-.1 24.49 0 24.59a6.84 6.84 0 0 0-4.83-2H25a1 1 0 0 1-1-1V12a1 1 0 0 1 1-1h11.59A3.41 3.41 0 0 1 40 14.41ZM40 14.41c0 26.5.1 24.49 0 24.59a6.84 6.84 0 0 1 4.83-2H55a1 1 0 0 0 1-1V12a1 1 0 0 0-1-1H43.41A3.41 3.41 0 0 0 40 14.41Z"/><path fill="#D0F0EE" d="M34 45H14v2h20v-2ZM42 49H14v4h28v-4ZM42 55H14v4h28v-4Z"/><path fill="#D9D9D9" d="M53 14H43v8h10v-8ZM49 24h-6v2h6v-2ZM33 14h-6v2h6v-2ZM53 28H43v2h10v-2ZM37 18H27v2h10v-2ZM37 22H27v2h10v-2ZM37 26H27v2h10v-2ZM37 30H27v4h10v-4ZM53 32H43v2h10v-2Z"/><path fill="#D6DF22" d="m58 55-2-9 9 2-7 7Z"/><path fill="#D6DF22" d="m60 47.992-2.001 2 5 5 2-2.001-4.999-5Z"/><path fill="#F3F3F3" d="M47 65H33a2 2 0 0 1-2-2c0-.1-.84 0 18 0a2 2 0 0 1-2 2Z"/></svg>