<svg xmlns="http://www.w3.org/2000/svg" width="79" height="79" fill="none"><path fill="#D0F0EE" d="M39.5 79C17.685 79 0 61.315 0 39.5S17.685 0 39.5 0 79 17.685 79 39.5 61.315 79 39.5 79Z"/><path fill="#00BEBD" d="M69 20H11a3 3 0 0 0-3 3v40a3 3 0 0 0 3 3h58a3 3 0 0 0 3-3V23a3 3 0 0 0-3-3Z"/><path fill="#F3F3F3" d="M40 20.41c0 44.92-.1 42.49 0 42.59a6.84 6.84 0 0 0-4.83-2H12V17h24.59A3.41 3.41 0 0 1 40 20.41ZM40 20.41c0 44.92.1 42.49 0 42.59a6.84 6.84 0 0 1 4.83-2H68V17H43.41A3.41 3.41 0 0 0 40 20.41Z"/><path fill="#D9D9D9" d="M64 22H44v12h20V22ZM28 22H16v18h12V22ZM60 36H44v2h16v-2ZM64 40H44v2h20v-2ZM64 44H44v2h20v-2ZM64 48H44v2h20v-2ZM64 52H44v2h20v-2ZM64 56H44v2h20v-2ZM36 22h-6v2h6v-2ZM36 26h-6v2h6v-2ZM36 30h-6v2h6v-2ZM36 34h-6v2h6v-2ZM36 38h-6v2h6v-2ZM36 42H18v2h18v-2ZM36 46H18v2h18v-2ZM36 50H18v2h18v-2ZM36 54H18v2h18v-2Z"/><path fill="#D6DF22" d="M19 17v47l-2-2-2 2V17a2 2 0 0 1 4 0ZM61 69l-2-9 9 2-7 7Z"/><path fill="#D6DF22" d="m62.997 61.996-2.001 2 4.999 5 2.001-2.001-5-5Z"/></svg>