<svg xmlns="http://www.w3.org/2000/svg" width="79" height="79" fill="none"><path fill="#D0F0EE" d="M39.5 79C17.685 79 0 61.315 0 39.5S17.685 0 39.5 0 79 17.685 79 39.5 61.315 79 39.5 79Z"/><g clip-path="url(#a)"><path fill="#50D9D7" d="M64 23H16a3 3 0 0 0-3 3v34a3 3 0 0 0 3 3h48a3 3 0 0 0 3-3V26a3 3 0 0 0-3-3Z"/><path fill="#fff" d="M65 26v31H15V26a1 1 0 0 1 1-1h48a1 1 0 0 1 1 1Z"/><path fill="#00AAA8" d="M48 71H34l1-8h12l1 8Z"/><path fill="#50D9D7" d="M54 72H28a1 1 0 0 1 0-2h26a1 1 0 0 1 0 2Z"/><path fill="#00AAA8" d="M30 8H10a2 2 0 0 0-2 2v16a2 2 0 0 0 2 2h20a2 2 0 0 0 2-2V10a2 2 0 0 0-2-2Z"/><path fill="#50D9D7" d="M27 20a2 2 0 1 0 0-4 2 2 0 0 0 0 4Z"/><path fill="#93E6E5" d="M20 20a2 2 0 1 0 0-4 2 2 0 0 0 0 4Z"/><path fill="#F3F3F3" d="M13 20a2 2 0 1 0 0-4 2 2 0 0 0 0 4Z"/><path fill="#00AAA8" d="m22 28 2 2 2-2"/><path fill="#D6DF22" d="M66 13H52a1 1 0 0 0-1 1v12a1 1 0 0 0 1 1h14a1 1 0 0 0 1-1V14a1 1 0 0 0-1-1Z"/><path fill="#D6DF22" d="m66 18 3.59-4.66A1.47 1.47 0 0 1 72 14.47v11.06a1.47 1.47 0 0 1-2.41 1.13L66 22"/><path fill="#F3F3F3" d="M59 23a3 3 0 1 0 0-6 3 3 0 0 0 0 6Z"/><path fill="#D6DF22" d="M28.9 37.6a1.1 1.1 0 1 1 0-2.2 1.1 1.1 0 0 1 0 2.2ZM33.048 42.737a6.6 6.6 0 0 1-8.294 0 4.4 4.4 0 0 1 8.294 0Z"/><path fill="#D6DF22" d="M34.61 40.9a6.654 6.654 0 0 0-2.916-2.672 3.3 3.3 0 1 0-5.587 0 6.655 6.655 0 0 0-2.915 2.673 6.6 6.6 0 1 1 11.417 0Z"/><path fill="#D9D9D9" d="M32.2 50.8h-6.6V53h6.6v-2.2ZM35.5 46.4H22.3v2.2h13.2v-2.2Z"/><path fill="#50D9D7" d="M53.099 37.6a1.1 1.1 0 1 1 0-2.199 1.1 1.1 0 0 1 0 2.2ZM57.247 42.737a6.6 6.6 0 0 1-8.294 0 4.4 4.4 0 0 1 8.294 0Z"/><path fill="#50D9D7" d="M58.808 40.9a6.655 6.655 0 0 0-2.915-2.672 3.3 3.3 0 1 0-5.588 0 6.655 6.655 0 0 0-2.914 2.673 6.6 6.6 0 1 1 11.417 0Z"/><path fill="#D9D9D9" d="M56.399 50.8h-6.6V53h6.6v-2.2ZM59.699 46.4h-13.2v2.2h13.2v-2.2Z"/></g><defs><clipPath id="a"><path fill="#fff" d="M8 8h64v64H8z"/></clipPath></defs></svg>