<svg width="15" height="12" viewBox="0 0 15 12" fill="currentColor" xmlns="http://www.w3.org/2000/svg">
<path d="M14.1124 6.02565C12.7657 2.89898 10.2324 0.958984 7.49907 0.958984C4.76573 0.958984 2.2324 2.89898 0.885735 6.02565C0.849026 6.10976 0.830078 6.20055 0.830078 6.29232C0.830078 6.38409 0.849026 6.47487 0.885735 6.55898C2.2324 9.68565 4.76573 11.6257 7.49907 11.6257C10.2324 11.6257 12.7657 9.68565 14.1124 6.55898C14.1491 6.47487 14.1681 6.38409 14.1681 6.29232C14.1681 6.20055 14.1491 6.10976 14.1124 6.02565ZM7.49907 10.2923C5.38573 10.2923 3.38573 8.76565 2.2324 6.29232C3.38573 3.81898 5.38573 2.29232 7.49907 2.29232C9.6124 2.29232 11.6124 3.81898 12.7657 6.29232C11.6124 8.76565 9.6124 10.2923 7.49907 10.2923ZM7.49907 3.62565C6.97165 3.62565 6.45608 3.78205 6.01755 4.07507C5.57902 4.36808 5.23722 4.78456 5.03539 5.27183C4.83356 5.7591 4.78075 6.29528 4.88364 6.81256C4.98653 7.32984 5.24051 7.805 5.61345 8.17794C5.98639 8.55088 6.46154 8.80485 6.97883 8.90774C7.49611 9.01064 8.03229 8.95783 8.51956 8.756C9.00683 8.55416 9.4233 8.21237 9.71632 7.77384C10.0093 7.33531 10.1657 6.81973 10.1657 6.29232C10.1657 5.58507 9.88478 4.9068 9.38469 4.4067C8.88459 3.9066 8.20631 3.62565 7.49907 3.62565ZM7.49907 7.62565C7.23536 7.62565 6.97757 7.54745 6.75831 7.40094C6.53904 7.25444 6.36815 7.0462 6.26723 6.80256C6.16631 6.55893 6.13991 6.29084 6.19135 6.0322C6.2428 5.77356 6.36979 5.53598 6.55626 5.34951C6.74273 5.16304 6.98031 5.03605 7.23895 4.9846C7.49759 4.93316 7.76568 4.95956 8.00931 5.06048C8.25295 5.16139 8.46119 5.33229 8.60769 5.55156C8.7542 5.77082 8.8324 6.02861 8.8324 6.29232C8.8324 6.64594 8.69193 6.98508 8.44188 7.23513C8.19183 7.48517 7.85269 7.62565 7.49907 7.62565Z" />
</svg>
