<svg width="24" height="24" viewBox="0 0 24 24" fill="none" xmlns="http://www.w3.org/2000/svg">
<path opacity="0.2" d="M7.5 20.25H4.5C4.30109 20.25 4.11032 20.171 3.96967 20.0303C3.82902 19.8897 3.75 19.6989 3.75 19.5V4.5C3.75 4.30109 3.82902 4.11032 3.96967 3.96967C4.11032 3.82902 4.30109 3.75 4.5 3.75H7.5V20.25Z" fill="none"/>
<path d="M10.5 10.5H16.5" stroke="none" stroke-width="2" stroke-linecap="round" stroke-linejoin="round"/>
<path d="M10.5 13.5H16.5" stroke="none" stroke-width="2" stroke-linecap="round" stroke-linejoin="round"/>
<path d="M19.5 3.75H4.5C4.08579 3.75 3.75 4.08579 3.75 4.5V19.5C3.75 19.9142 4.08579 20.25 4.5 20.25H19.5C19.9142 20.25 20.25 19.9142 20.25 19.5V4.5C20.25 4.08579 19.9142 3.75 19.5 3.75Z" stroke="none" stroke-width="2" stroke-linecap="round" stroke-linejoin="round"/>
<path d="M7.5 3.75V20.25" stroke="none" stroke-width="2" stroke-linecap="round" stroke-linejoin="round"/>
</svg>
