<svg width="12" height="12" viewBox="0 0 12 12" fill="currentColor" xmlns="http://www.w3.org/2000/svg">
<path d="M10.666 5.61857H6.66602V1.61857C6.66602 1.44176 6.59578 1.27219 6.47075 1.14717C6.34573 1.02214 6.17616 0.951904 5.99935 0.951904C5.82254 0.951904 5.65297 1.02214 5.52794 1.14717C5.40292 1.27219 5.33268 1.44176 5.33268 1.61857V5.61857H1.33268C1.15587 5.61857 0.986302 5.68881 0.861278 5.81383C0.736254 5.93886 0.666016 6.10843 0.666016 6.28524C0.666016 6.46205 0.736254 6.63162 0.861278 6.75664C0.986302 6.88167 1.15587 6.9519 1.33268 6.9519H5.33268V10.9519C5.33268 11.1287 5.40292 11.2983 5.52794 11.4233C5.65297 11.5483 5.82254 11.6186 5.99935 11.6186C6.17616 11.6186 6.34573 11.5483 6.47075 11.4233C6.59578 11.2983 6.66602 11.1287 6.66602 10.9519V6.9519H10.666C10.8428 6.9519 11.0124 6.88167 11.1374 6.75664C11.2624 6.63162 11.3327 6.46205 11.3327 6.28524C11.3327 6.10843 11.2624 5.93886 11.1374 5.81383C11.0124 5.68881 10.8428 5.61857 10.666 5.61857Z" />
</svg>
