<svg width="12" height="13" viewBox="0 0 12 13" fill="currentColor" xmlns="http://www.w3.org/2000/svg">
<path d="M11.8067 4.47849L7.80667 0.47849C7.74523 0.418522 7.6728 0.370985 7.59333 0.33849C7.51068 0.304901 7.42254 0.286822 7.33333 0.285156H2C1.46957 0.285156 0.960859 0.49587 0.585787 0.870943C0.210714 1.24602 0 1.75472 0 2.28516V10.2852C0 10.8156 0.210714 11.3243 0.585787 11.6994C0.960859 12.0744 1.46957 12.2852 2 12.2852H10C10.5304 12.2852 11.0391 12.0744 11.4142 11.6994C11.7893 11.3243 12 10.8156 12 10.2852V4.95182C12.0005 4.86409 11.9837 4.77711 11.9505 4.69589C11.9173 4.61466 11.8685 4.54078 11.8067 4.47849ZM4 1.61849H6.66667V2.95182H4V1.61849ZM8 10.9518H4V8.95182C4 8.77501 4.07024 8.60544 4.19526 8.48042C4.32029 8.35539 4.48986 8.28516 4.66667 8.28516H7.33333C7.51014 8.28516 7.67971 8.35539 7.80474 8.48042C7.92976 8.60544 8 8.77501 8 8.95182V10.9518ZM10.6667 10.2852C10.6667 10.462 10.5964 10.6315 10.4714 10.7566C10.3464 10.8816 10.1768 10.9518 10 10.9518H9.33333V8.95182C9.33333 8.42139 9.12262 7.91268 8.74755 7.53761C8.37247 7.16254 7.86377 6.95182 7.33333 6.95182H4.66667C4.13623 6.95182 3.62753 7.16254 3.25245 7.53761C2.87738 7.91268 2.66667 8.42139 2.66667 8.95182V10.9518H2C1.82319 10.9518 1.65362 10.8816 1.5286 10.7566C1.40357 10.6315 1.33333 10.462 1.33333 10.2852V2.28516C1.33333 2.10835 1.40357 1.93878 1.5286 1.81375C1.65362 1.68873 1.82319 1.61849 2 1.61849H2.66667V3.61849C2.66667 3.7953 2.7369 3.96487 2.86193 4.08989C2.98695 4.21492 3.15652 4.28516 3.33333 4.28516H7.33333C7.51014 4.28516 7.67971 4.21492 7.80474 4.08989C7.92976 3.96487 8 3.7953 8 3.61849V2.55849L10.6667 5.22516V10.2852Z" />
</svg>
