<svg width="14" height="14" viewBox="0 0 14 14" fill="currentColor" xmlns="http://www.w3.org/2000/svg">
<path d="M13.4742 12.8186L11.0009 10.3653C11.961 9.1682 12.4259 7.64879 12.3001 6.11946C12.1743 4.59013 11.4674 3.16712 10.3246 2.14302C9.18182 1.11893 7.69012 0.571602 6.15619 0.613575C4.62227 0.655549 3.16273 1.28364 2.07767 2.36869C0.992621 3.45374 0.364533 4.91329 0.32256 6.44721C0.280586 7.98113 0.827917 9.47284 1.85201 10.6156C2.8761 11.7584 4.29911 12.4653 5.82845 12.5911C7.35778 12.7169 8.87719 12.252 10.0742 11.2919L12.5276 13.7453C12.5896 13.8077 12.6633 13.8573 12.7445 13.8912C12.8258 13.925 12.9129 13.9425 13.0009 13.9425C13.0889 13.9425 13.1761 13.925 13.2573 13.8912C13.3385 13.8573 13.4123 13.8077 13.4742 13.7453C13.5944 13.621 13.6616 13.4548 13.6616 13.2819C13.6616 13.109 13.5944 12.9429 13.4742 12.8186ZM6.33425 11.2919C5.41127 11.2919 4.50901 11.0182 3.74158 10.5055C2.97416 9.99267 2.37602 9.26384 2.02281 8.41112C1.6696 7.5584 1.57718 6.62008 1.75725 5.71484C1.93731 4.8096 2.38177 3.97808 3.03441 3.32543C3.68706 2.67279 4.51858 2.22833 5.42382 2.04826C6.32907 1.8682 7.26738 1.96061 8.1201 2.31382C8.97282 2.66703 9.70166 3.26517 10.2144 4.0326C10.7272 4.80003 11.0009 5.70228 11.0009 6.62526C11.0009 7.86294 10.5092 9.04992 9.63408 9.92509C8.75891 10.8003 7.57192 11.2919 6.33425 11.2919Z" />
</svg>
