<svg width="20" height="15" viewBox="0 0 20 15" fill="currentColor" xmlns="http://www.w3.org/2000/svg">
<path d="M7 5.29199C6.73478 5.29199 6.48043 5.39735 6.29289 5.58489C6.10536 5.77242 6 6.02678 6 6.29199V8.29199C6 8.55721 6.10536 8.81156 6.29289 8.9991C6.48043 9.18664 6.73478 9.29199 7 9.29199C7.26522 9.29199 7.51957 9.18664 7.70711 8.9991C7.89464 8.81156 8 8.55721 8 8.29199V6.29199C8 6.02678 7.89464 5.77242 7.70711 5.58489C7.51957 5.39735 7.26522 5.29199 7 5.29199ZM19 6.29199C19.2652 6.29199 19.5196 6.18664 19.7071 5.9991C19.8946 5.81156 20 5.55721 20 5.29199V1.29199C20 1.02678 19.8946 0.772422 19.7071 0.584886C19.5196 0.397349 19.2652 0.291992 19 0.291992H1C0.734784 0.291992 0.48043 0.397349 0.292893 0.584886C0.105357 0.772422 0 1.02678 0 1.29199V5.29199C0 5.55721 0.105357 5.81156 0.292893 5.9991C0.48043 6.18664 0.734784 6.29199 1 6.29199C1.26522 6.29199 1.51957 6.39735 1.70711 6.58489C1.89464 6.77242 2 7.02678 2 7.29199C2 7.55721 1.89464 7.81156 1.70711 7.9991C1.51957 8.18664 1.26522 8.29199 1 8.29199C0.734784 8.29199 0.48043 8.39735 0.292893 8.58489C0.105357 8.77242 0 9.02678 0 9.29199V13.292C0 13.5572 0.105357 13.8116 0.292893 13.9991C0.48043 14.1866 0.734784 14.292 1 14.292H19C19.2652 14.292 19.5196 14.1866 19.7071 13.9991C19.8946 13.8116 20 13.5572 20 13.292V9.29199C20 9.02678 19.8946 8.77242 19.7071 8.58489C19.5196 8.39735 19.2652 8.29199 19 8.29199C18.7348 8.29199 18.4804 8.18664 18.2929 7.9991C18.1054 7.81156 18 7.55721 18 7.29199C18 7.02678 18.1054 6.77242 18.2929 6.58489C18.4804 6.39735 18.7348 6.29199 19 6.29199ZM18 4.47199C17.4208 4.6822 16.9205 5.06562 16.5668 5.57016C16.2132 6.07469 16.0235 6.67587 16.0235 7.29199C16.0235 7.90811 16.2132 8.50929 16.5668 9.01383C16.9205 9.51836 17.4208 9.90179 18 10.112V12.292H8C8 12.0268 7.89464 11.7724 7.70711 11.5849C7.51957 11.3973 7.26522 11.292 7 11.292C6.73478 11.292 6.48043 11.3973 6.29289 11.5849C6.10536 11.7724 6 12.0268 6 12.292H2V10.112C2.57915 9.90179 3.07954 9.51836 3.43316 9.01383C3.78678 8.50929 3.97648 7.90811 3.97648 7.29199C3.97648 6.67587 3.78678 6.07469 3.43316 5.57016C3.07954 5.06562 2.57915 4.6822 2 4.47199V2.29199H6C6 2.55721 6.10536 2.81156 6.29289 2.9991C6.48043 3.18664 6.73478 3.29199 7 3.29199C7.26522 3.29199 7.51957 3.18664 7.70711 2.9991C7.89464 2.81156 8 2.55721 8 2.29199H18V4.47199Z" />
</svg>
