<svg width="12" height="14" viewBox="0 0 12 14" fill="currentColor" xmlns="http://www.w3.org/2000/svg">
<path d="M11.3333 3.03166H8.66667V2.36499C8.66667 1.83456 8.45595 1.32585 8.08088 0.950777C7.70581 0.575704 7.1971 0.36499 6.66667 0.36499H5.33333C4.8029 0.36499 4.29419 0.575704 3.91912 0.950777C3.54405 1.32585 3.33333 1.83456 3.33333 2.36499V3.03166H0.666667C0.489856 3.03166 0.320286 3.1019 0.195262 3.22692C0.0702379 3.35194 0 3.52151 0 3.69832C0 3.87513 0.0702379 4.0447 0.195262 4.16973C0.320286 4.29475 0.489856 4.36499 0.666667 4.36499H1.33333V11.6983C1.33333 12.2288 1.54405 12.7375 1.91912 13.1125C2.29419 13.4876 2.8029 13.6983 3.33333 13.6983H8.66667C9.1971 13.6983 9.70581 13.4876 10.0809 13.1125C10.456 12.7375 10.6667 12.2288 10.6667 11.6983V4.36499H11.3333C11.5101 4.36499 11.6797 4.29475 11.8047 4.16973C11.9298 4.0447 12 3.87513 12 3.69832C12 3.52151 11.9298 3.35194 11.8047 3.22692C11.6797 3.1019 11.5101 3.03166 11.3333 3.03166ZM4.66667 2.36499C4.66667 2.18818 4.7369 2.01861 4.86193 1.89359C4.98695 1.76856 5.15652 1.69832 5.33333 1.69832H6.66667C6.84348 1.69832 7.01305 1.76856 7.13807 1.89359C7.2631 2.01861 7.33333 2.18818 7.33333 2.36499V3.03166H4.66667V2.36499ZM9.33333 11.6983C9.33333 11.8751 9.2631 12.0447 9.13807 12.1697C9.01305 12.2948 8.84348 12.365 8.66667 12.365H3.33333C3.15652 12.365 2.98695 12.2948 2.86193 12.1697C2.7369 12.0447 2.66667 11.8751 2.66667 11.6983V4.36499H9.33333V11.6983Z" />
</svg>
