<svg width="20" height="20" viewBox="0 0 20 20" fill="none" xmlns="http://www.w3.org/2000/svg">
<path d="M19.1666 2.49999C18.3686 3.06289 17.485 3.49341 16.5499 3.77499C16.048 3.19791 15.381 2.7889 14.6391 2.60326C13.8972 2.41762 13.1162 2.46432 12.4017 2.73703C11.6871 3.00975 11.0736 3.49532 10.6441 4.12808C10.2145 4.76085 9.98967 5.51027 9.99992 6.27499V7.10832C8.53545 7.14629 7.08431 6.8215 5.77576 6.16286C4.4672 5.50422 3.34185 4.53218 2.49992 3.33332C2.49992 3.33332 -0.833415 10.8333 6.66658 14.1667C4.95036 15.3316 2.90588 15.9158 0.833252 15.8333C8.33325 20 17.4999 15.8333 17.4999 6.24999C17.4991 6.01787 17.4768 5.78632 17.4333 5.55832C18.2838 4.71957 18.8839 3.66058 19.1666 2.49999Z" fill="#41A0E4" stroke="#41A0E4" stroke-linecap="round" stroke-linejoin="round"/>
</svg>
