<svg width="50" height="50" viewBox="0 0 50 50" fill="none" xmlns="http://www.w3.org/2000/svg">
<path opacity="0.2" d="M6.25 32.8125L16.0826 22.9798C16.2277 22.8348 16.4 22.7197 16.5895 22.6411C16.7791 22.5626 16.9823 22.5222 17.1875 22.5222C17.3927 22.5222 17.5958 22.5626 17.7854 22.6411C17.975 22.7197 18.1472 22.8348 18.2923 22.9798L27.0201 31.7076C27.1652 31.8527 27.3375 31.9678 27.527 32.0463C27.7166 32.1249 27.9198 32.1653 28.125 32.1653C28.3302 32.1653 28.5333 32.1249 28.7229 32.0463C28.9125 31.9678 29.0847 31.8527 29.2298 31.7076L33.2701 27.6673C33.4152 27.5223 33.5875 27.4072 33.777 27.3286C33.9666 27.2501 34.1698 27.2097 34.375 27.2097C34.5802 27.2097 34.7833 27.2501 34.9729 27.3286C35.1625 27.4072 35.3347 27.5223 35.4798 27.6673L43.75 35.9375L43.75 10.9375C43.75 10.5231 43.5854 10.1257 43.2924 9.83265C42.9993 9.53962 42.6019 9.375 42.1875 9.375H7.8125C7.3981 9.375 7.00067 9.53962 6.70765 9.83265C6.41462 10.1257 6.25 10.5231 6.25 10.9375V32.8125Z" fill="#41A0E4"/>
<path d="M42.1875 9.375H7.8125C6.94956 9.375 6.25 10.0746 6.25 10.9375V39.0625C6.25 39.9254 6.94956 40.625 7.8125 40.625H42.1875C43.0504 40.625 43.75 39.9254 43.75 39.0625V10.9375C43.75 10.0746 43.0504 9.375 42.1875 9.375Z" stroke="#41A0E4" stroke-width="2" stroke-linecap="round" stroke-linejoin="round"/>
<path d="M6.25 32.8124L16.0826 22.9798C16.2277 22.8347 16.4 22.7196 16.5895 22.6411C16.7791 22.5625 16.9823 22.5221 17.1875 22.5221C17.3927 22.5221 17.5958 22.5625 17.7854 22.6411C17.975 22.7196 18.1472 22.8347 18.2923 22.9798L27.0201 31.7076C27.1652 31.8527 27.3375 31.9677 27.527 32.0463C27.7166 32.1248 27.9198 32.1652 28.125 32.1652C28.3302 32.1652 28.5333 32.1248 28.7229 32.0463C28.9125 31.9677 29.0847 31.8527 29.2298 31.7076L33.2701 27.6673C33.4152 27.5222 33.5875 27.4071 33.777 27.3286C33.9666 27.25 34.1698 27.2096 34.375 27.2096C34.5802 27.2096 34.7833 27.25 34.9729 27.3286C35.1625 27.4071 35.3347 27.5222 35.4798 27.6673L43.75 35.9374" stroke="#41A0E4" stroke-width="2" stroke-linecap="round" stroke-linejoin="round"/>
<path d="M30.4688 21.875C31.7632 21.875 32.8125 20.8257 32.8125 19.5312C32.8125 18.2368 31.7632 17.1875 30.4688 17.1875C29.1743 17.1875 28.125 18.2368 28.125 19.5312C28.125 20.8257 29.1743 21.875 30.4688 21.875Z" fill="#41A0E4"/>
<circle cx="41" cy="41" r="9" fill="#BDBDBD"/>
<g clip-path="url(#clip0_1_441)">
<path d="M37.3993 41.6655L36.9512 41.2244C36.7614 41.0376 36.7614 40.7356 36.9512 40.5508L40.8734 36.6879C41.0631 36.5011 41.3699 36.5011 41.5577 36.6879L45.4799 40.5488C45.6696 40.7356 45.6696 41.0376 45.4799 41.2224L45.0317 41.6636C44.84 41.8523 44.5271 41.8484 44.3394 41.6556L42.024 39.2632V44.9741C42.024 45.2383 41.808 45.451 41.5395 45.451H40.8935C40.6251 45.451 40.4091 45.2383 40.4091 44.9741V39.2632L38.0917 41.6576C37.9039 41.8523 37.5911 41.8563 37.3993 41.6655Z" fill="#E8F7EE" fill-opacity="0.8"/>
</g>
<defs>
<clipPath id="clip0_1_441">
<rect width="9.04348" height="10.1739" fill="white" transform="translate(36.6957 35.9131)"/>
</clipPath>
</defs>
</svg>
